<svg width="126" height="37" fill="none" xmlns="http://www.w3.org/2000/svg"><g opacity=".7" clip-path="url(#clip0_663_2045)"><path d="M16.31 3.089V1.182h6.293v7.095h-6.346a5.758 5.758 0 00-2.44-2.27 7.436 7.436 0 00-3.274-.726 3.75 3.75 0 00-2.357.602 1.843 1.843 0 00-.75 1.487c-.013.413.135.816.411 1.125.36.349.818.582 1.314.668.601.142 1.693.328 3.275.56 2.162.318 3.589.56 4.28.726.978.23 1.924.578 2.816 1.036.712.4 1.356.909 1.908 1.508a6.986 6.986 0 011.398 2.322c.358.978.535 2.012.521 3.053a7.476 7.476 0 01-.63 3.198 7.516 7.516 0 01-1.935 2.633c-1.707 1.53-4.045 2.295-7.013 2.295-1.354.027-2.7-.201-3.968-.673a7.744 7.744 0 01-2.722-1.695v1.83H.834V18.18h6.43a7.065 7.065 0 002.304 2.493c.96.566 2.06.848 3.175.814a3.96 3.96 0 002.498-.643 2.077 2.077 0 00.792-1.679 1.72 1.72 0 00-.401-1.208 3.818 3.818 0 00-1.815-.767c-.695-.162-1.929-.359-3.702-.59a25.721 25.721 0 01-4.04-.773A10.781 10.781 0 012.8 14.222 7.428 7.428 0 01.76 11.827a6.86 6.86 0 010-6.287 8.54 8.54 0 014.536-3.964A12.582 12.582 0 019.766.85c1.22-.028 2.436.147 3.598.518A9.733 9.733 0 0116.31 3.09zM38.199 23.344a11.959 11.959 0 01-4.208-.757 10.844 10.844 0 01-3.504-2.073 10.376 10.376 0 01-2.3-2.902 9.19 9.19 0 01-1.095-4.37 9.026 9.026 0 01.6-3.29 9.73 9.73 0 011.564-2.7 11.75 11.75 0 012.274-2.074 10.872 10.872 0 013.07-1.487 12.022 12.022 0 013.62-.55c1.219-.016 2.433.16 3.597.518a11.5 11.5 0 012.972 1.415c.861.586 1.64 1.283 2.315 2.073a9.548 9.548 0 012.232 6.08 8.798 8.798 0 01-.954 4.1 10.716 10.716 0 01-5.47 5.068c-1.49.63-3.094.952-4.713.949zM39.24 8.547a4.835 4.835 0 00-2.273.56 4.383 4.383 0 00-1.752 1.705 4.644 4.644 0 00-.678 2.4 4.55 4.55 0 00.647 2.326 4.42 4.42 0 001.73 1.7c.712.389 1.51.59 2.321.586a4.84 4.84 0 002.315-.58 4.325 4.325 0 001.731-1.685c.421-.711.643-1.522.642-2.348a4.7 4.7 0 00-.662-2.405 4.29 4.29 0 00-1.747-1.7c-.7-.37-1.48-.563-2.274-.564v.005zM52.204 4.815L61.85 5.95v2.82l-1.679-.115v5.328c-.005.35.04.7.136 1.037.106.498.352.956.709 1.322a2.616 2.616 0 002.638.357c.315-.118.598-.306.83-.55a2.36 2.36 0 00.604-1.585V9.09l-1.434-.135V6.209l6.586.809.099 2.3-1.184.068v4.55a6.975 6.975 0 01-.605 3.385c-.199.393-.457.753-.766 1.068a5.073 5.073 0 01-1.663 1.036c-.615.279-1.253.5-1.909.664-.968.227-1.957.357-2.95.388-.84.1-1.686.1-2.525 0a6.689 6.689 0 01-2.2-.746 3.53 3.53 0 01-1.126-.891 3.223 3.223 0 01-.522-.954 8.563 8.563 0 01-.438-2.913l-.03-6.592-2.186-.26-.03-3.306z" fill="#E9D3B0" fill-opacity=".6"/><path d="M77.206 37c14.398 0 26.071-3.016 26.071-6.738 0-3.72-11.672-6.737-26.071-6.737-14.399 0-26.07 3.016-26.07 6.738 0 3.72 11.671 6.737 26.07 6.737z" fill="#E9D3B0"/><path d="M57.935 28.163v-.264h1.11v1.461H57.94a.722.722 0 00-.303-.337.992.992 0 00-1.142.166 1.036 1.036 0 00-.265.762c-.008.21.037.418.13.606a.836.836 0 00.35.358c.128.062.269.092.411.088.13.002.259-.02.38-.062a.685.685 0 00.262-.15.733.733 0 00.15-.239h-.52v-.782h2.231v.824h-.386v1.446h-1.043v-.42a1.88 1.88 0 01-.568.415c-.21.087-.435.13-.662.124a1.918 1.918 0 01-1.44-.59 2.174 2.174 0 01-.568-1.556 2.758 2.758 0 01.183-1.036c.082-.205.198-.394.344-.56.159-.18.352-.329.568-.435.26-.122.547-.18.835-.171.196-.005.391.023.578.082.17.065.329.156.47.27zM60.505 32.024v-.845h.412v-2.44h-.397v-.845h2.31c.282-.005.565.007.845.036.15.015.297.05.438.104.11.048.209.116.292.202.091.092.16.204.203.326.048.137.07.28.068.425a.929.929 0 01-.203.627c-.17.177-.393.292-.636.327l.396.098c.069.02.133.053.188.099a.31.31 0 01.083.13c.028.115.04.233.037.352v.565h.338v.845h-1.564v-1.037c.006-.12-.005-.24-.031-.358a.342.342 0 00-.094-.166.476.476 0 00-.193-.088 1.573 1.573 0 00-.323 0H62.2v.809h.401v.845l-2.096-.01zm1.674-3.286v.835h.432c.2.02.4-.018.58-.109a.394.394 0 00.14-.332.397.397 0 00-.073-.248.329.329 0 00-.193-.12 2.14 2.14 0 00-.417-.026h-.47zM67.93 32.024h-2.127v-.845h.412v-2.44h-.412v-.845h2.127v.844h-.438v2.442h.438v.844zM68.842 32.024v-.845h.444v-2.44h-.428v-.845h2.127v.844h-.427v2.442H71.6l.187-.81h.798v1.654h-3.744zM73.488 32.024v-.845h.428v-2.44h-.428v-.845h2.128v.844h-.428v2.442h1.043l.188-.81h.797v1.654h-3.728zM80.632 29.718l.782.798c.174-.132.306-.312.38-.518h-.323v-.752h1.564v.82h-.364a2.585 2.585 0 01-.25.518 2.9 2.9 0 01-.434.518l.147.16h.709v.81h-1.408l-.287-.286a3.055 3.055 0 01-.657.275 2.622 2.622 0 01-.683.083c-.367.02-.73-.073-1.043-.265a1.154 1.154 0 01-.522-.908 1.145 1.145 0 01.434-.952 2.01 2.01 0 01.417-.244 1.343 1.343 0 01-.324-.404.99.99 0 01-.135-.467.942.942 0 01.584-.85c.22-.09.455-.135.693-.13.329-.023.655.073.918.27a.868.868 0 01.308.68.965.965 0 01-.13.518c-.103.132-.23.243-.376.326zm-.157 1.363l-.76-.746a.598.598 0 00-.24.212.516.516 0 00-.1.296.517.517 0 00.157.363.52.52 0 00.39.155.682.682 0 00.553-.275v-.005zm-.521-1.819a.35.35 0 00.245-.145.486.486 0 00.103-.47.335.335 0 00-.077-.116.377.377 0 00-.271-.093.424.424 0 00-.297.099.336.336 0 00-.11.253.473.473 0 00.188.368.355.355 0 00.235.11l-.016-.006zM84.125 32.025v-.845h.412v-2.441h-.428v-.845h2.607c.263-.008.526.018.783.078a.913.913 0 01.677.938.919.919 0 01-.198.616c-.158.171-.369.284-.6.322.272.017.527.131.72.321.164.202.246.457.23.715a1.36 1.36 0 01-.073.456.839.839 0 01-.209.332.997.997 0 01-.308.197c-.168.06-.343.1-.521.12a5.776 5.776 0 01-.714.03l-2.378.006zm1.658-3.328v.835h.37c.152.004.304-.009.454-.037a.423.423 0 00.245-.14.392.392 0 00.083-.259.351.351 0 00-.13-.295.954.954 0 00-.521-.099l-.5-.005zm0 1.519v.974h.464c.225.017.45-.02.657-.109a.4.4 0 00.183-.373.444.444 0 00-.152-.373 1.122 1.122 0 00-.636-.12h-.516zM89.407 32.025v-.845h.412v-2.441h-.427v-.845h2.607c.263-.008.526.018.782.078a.912.912 0 01.678.938.918.918 0 01-.199.616c-.157.171-.369.284-.6.322.272.017.527.131.72.321.164.202.246.457.23.715.002.155-.023.31-.073.456a.84.84 0 01-.209.332.996.996 0 01-.307.197c-.169.06-.344.1-.522.12a5.776 5.776 0 01-.714.03l-2.378.006zm1.658-3.328v.835h.37a2.15 2.15 0 00.454-.037.423.423 0 00.245-.14.393.393 0 00.084-.259.35.35 0 00-.13-.295.954.954 0 00-.522-.099l-.5-.005zm0 1.519v.974h.464c.225.017.45-.02.657-.109a.4.4 0 00.183-.373.443.443 0 00-.151-.373 1.122 1.122 0 00-.636-.12h-.517zM98.355 31.589h.651v.87h-1.21l-.244-.409a2.388 2.388 0 01-.73.114 2.132 2.132 0 01-1.565-.617 2.159 2.159 0 01-.615-1.59 2.18 2.18 0 01.266-1.1c.18-.31.442-.569.756-.746a2.468 2.468 0 012.3 0c.317.18.581.439.766.752.2.361.297.77.282 1.181a1.98 1.98 0 01-.642 1.555l-.015-.01zm-1.507-.622l-.318-.518.683-.4.339.55a.697.697 0 00.114-.239c.037-.122.055-.25.053-.378a1.033 1.033 0 00-.25-.736.872.872 0 00-.658-.259.849.849 0 00-.646.264 1.032 1.032 0 00-.25.731c-.009.207.044.413.15.591.09.144.22.258.376.326.128.049.265.072.402.068h.005z" fill="#000"/><path d="M28.276 35.513l22.207-2.934-.61-.834-21.597 2.741v1.027zM28.276 33.45l21.644-2.768-.047-1.005-21.597 2.741v1.032zM28.276 30.019v1.036l22.484-2.85.678-1.125-23.162 2.939zM126.005 35.513l-22.207-2.934.61-.834 21.597 2.741v1.027zM126.005 33.45l-21.644-2.768.047-1.005 21.597 2.741v1.032zM126.005 30.019v1.036l-22.483-2.85-.678-1.125 23.161 2.939zM17.614 2.223V.316h6.309v7.116H17.56a5.758 5.758 0 00-2.44-2.27 7.436 7.436 0 00-3.274-.726 3.75 3.75 0 00-2.357.601 1.843 1.843 0 00-.75 1.488c-.013.413.134.816.411 1.125.36.349.818.582 1.314.668.601.142 1.693.328 3.274.56 2.163.318 3.59.56 4.281.726.978.23 1.923.578 2.816 1.036.712.4 1.356.909 1.908 1.508a6.984 6.984 0 011.398 2.322c.358.978.535 2.012.521 3.053a7.477 7.477 0 01-.628 3.2 7.518 7.518 0 01-1.932 2.636c-1.707 1.53-4.045 2.296-7.013 2.296-1.354.026-2.7-.202-3.968-.674A7.745 7.745 0 018.4 23.286v1.83H2.143V17.34h6.43a7.065 7.065 0 002.304 2.493c.96.566 2.06.848 3.175.814a3.96 3.96 0 002.498-.643 2.074 2.074 0 00.792-1.679 1.72 1.72 0 00-.401-1.207 3.819 3.819 0 00-1.815-.767c-.695-.163-1.929-.36-3.702-.591a25.733 25.733 0 01-4.04-.772 10.786 10.786 0 01-3.275-1.607 7.428 7.428 0 01-2.039-2.395 6.86 6.86 0 010-6.286A8.54 8.54 0 016.606.736 12.583 12.583 0 0111.075.01c1.22-.028 2.436.148 3.598.518a9.734 9.734 0 012.94 1.695zM39.502 22.462a11.957 11.957 0 01-4.208-.756 10.843 10.843 0 01-3.503-2.073 10.377 10.377 0 01-2.3-2.903 9.191 9.191 0 01-1.095-4.369 9.026 9.026 0 01.6-3.291c.372-.978.9-1.89 1.564-2.7a11.746 11.746 0 012.273-2.073 10.872 10.872 0 013.072-1.488 12.023 12.023 0 013.618-.55c1.22-.015 2.433.16 3.598.52 1.054.326 2.055.803 2.972 1.414.861.585 1.64 1.283 2.315 2.073a9.548 9.548 0 012.232 6.08 8.8 8.8 0 01-.954 4.1 10.716 10.716 0 01-5.47 5.068c-1.49.63-3.094.952-4.714.948zm1.043-14.797a4.836 4.836 0 00-2.273.56A4.384 4.384 0 0036.52 9.93a4.644 4.644 0 00-.678 2.4 4.55 4.55 0 00.647 2.358 4.419 4.419 0 001.73 1.7c.711.389 1.51.59 2.32.586a4.841 4.841 0 002.316-.58 4.326 4.326 0 001.731-1.685c.421-.712.642-1.522.642-2.348a4.7 4.7 0 00-.663-2.405 4.29 4.29 0 00-1.746-1.7 4.877 4.877 0 00-2.274-.58v-.01z" fill="#E9D3B0"/><path d="M77.222 11.697c.062-1.769.127-3.543.193-5.322 5.328-.591 10.66-1.11 15.991-1.555v6.22l-3.066.129-.667-2.628-1.82.166v8.81l1.851.14v3.147c-2.937-.215-5.874-.451-8.812-.71v-3.11l1.909.145V9.142l-1.851.171-.662 2.265-3.066.12zM99.486 21.648l.088-3.457 1.497-.03V7.887l-1.564.067v-3.56l8.342-.996v3.737l-1.736.239v3.197l6.502-.45-.115-3.37-1.673.13V3.037l9.688-1.208.041 4.058-2.044.3-.041 11.491 2.044.088-.042 3.846h-9.777l.089-3.758 1.736.042.089-3.67-6.56.43v3.281h1.763l-.042 3.8-8.285-.089z" fill="#E9D3B0" fill-opacity=".6"/><path d="M78.191 10.744c.063-1.77.127-3.544.193-5.323 5.33-.59 10.66-1.11 15.992-1.555v6.22l-3.066.13-.667-2.629-1.82.166v8.811l1.851.14v3.146c-2.937-.214-5.875-.45-8.812-.71v-3.11l1.909.145V8.19l-1.852.17-.64 2.255-3.088.13zM100.456 20.695l.089-3.457 1.496-.031V6.934l-1.564.068v-3.56l8.343-.996v3.737l-1.737.238V9.62l6.502-.45-.114-3.37-1.674.13V2.083l9.63-1.212.042 4.058-2.044.3-.042 11.49 2.044.089-.041 3.845h-9.72l.089-3.757 1.736.041.089-3.67-6.559.431v3.28h1.762l-.042 3.8-8.285-.083zM53.508 3.944l9.646 1.135v2.82l-1.679-.115-.01 5.349c-.006.35.04.7.135 1.037.106.498.352.956.71 1.321a2.615 2.615 0 002.638.358c.314-.119.598-.307.829-.55a2.36 2.36 0 00.605-1.586V8.22l-1.434-.135V5.359l6.585.808.1 2.301-1.184.068v4.55a6.976 6.976 0 01-.605 3.385c-.2.392-.458.753-.767 1.067a5.073 5.073 0 01-1.663 1.037c-.614.279-1.253.5-1.908.663a14.93 14.93 0 01-2.952.389c-.838.1-1.685.1-2.523 0a6.69 6.69 0 01-2.2-.746 3.531 3.531 0 01-1.127-.892 3.222 3.222 0 01-.521-.953 8.56 8.56 0 01-.438-2.913l-.016-6.613-2.185-.26-.036-3.306z" fill="#E9D3B0"/></g><defs><clipPath id="clip0_663_2045"><path fill="#fff" d="M0 0h126v37H0z"/></clipPath></defs></svg>