<?xml version="1.0" encoding="utf-8"?><svg viewBox="0 0 34 34" xmlns="http://www.w3.org/2000/svg" xmlns:xlink="http://www.w3.org/1999/xlink"><style>:root>svg{display:none}:root>svg:target{display:block}</style><svg fill="none" viewBox="0 0 24 25" id="basket" xmlns="http://www.w3.org/2000/svg"><path d="M4.615 5.115 3.686 1.5H1" stroke="#fff" stroke-width="1.808" stroke-linecap="round" stroke-linejoin="round"/><path clip-rule="evenodd" d="M6.947 16.109 4.615 5.115h16.753c.843 0 1.47.786 1.294 1.62l-1.988 9.374a1.327 1.327 0 0 1-1.294 1.058H8.24c-.623 0-1.162-.44-1.293-1.058Z" stroke="#fff" stroke-width="1.808" stroke-linecap="round" stroke-linejoin="round"/><path d="M19.677 22.138a.452.452 0 1 0 .005.904.452.452 0 0 0-.005-.904M8.832 22.138a.449.449 0 0 0-.45.452.45.45 0 1 0 .903 0 .452.452 0 0 0-.453-.452" stroke="#fff" stroke-width="1.808" stroke-linecap="round" stroke-linejoin="round"/></svg><svg fill="none" viewBox="0 0 24 25" id="login" xmlns="http://www.w3.org/2000/svg"><path fill-rule="evenodd" clip-rule="evenodd" d="M23.261 5.582A5.332 5.332 0 0 0 17.934.5h-5.886l-.251.006a5.343 5.343 0 0 0-5.093 5.338v1.124l.008.123a.904.904 0 0 0 1.8-.123V5.844l.005-.208a3.536 3.536 0 0 1 3.532-3.328h5.885l.207.006a3.525 3.525 0 0 1 3.318 3.519v13.425l-.006.208a3.537 3.537 0 0 1-3.53 3.329h-5.888l-.207-.006a3.525 3.525 0 0 1-3.317-3.52v-1.134l-.008-.123a.904.904 0 0 0-1.8.123v1.135l.007.258a5.333 5.333 0 0 0 5.325 5.075h5.887l.252-.006a5.345 5.345 0 0 0 5.093-5.34V5.834l-.006-.251ZM12.246 8.399a.904.904 0 0 1 1.177-.09l.101.088 3.529 3.514a.904.904 0 0 1 .088 1.18l-.003.003a.915.915 0 0 1-.083.095l-.002.003-3.529 3.514a.904.904 0 0 1-1.363-1.18l.088-.101 1.977-1.97H1.904a.904.904 0 0 1-.123-1.8l.123-.008h12.322l-1.977-1.97a.904.904 0 0 1-.09-1.176l.087-.102Z" fill="#fff"/></svg><svg fill="none" viewBox="0 0 24 24" id="menu" xmlns="http://www.w3.org/2000/svg"><rect y="18.5" width="24" height="3" rx=".75" fill="#E9D3B0"/><rect y="10" width="24" height="3" rx=".75" fill="#E9D3B0"/><rect y="2" width="24" height="3" rx=".75" fill="#E9D3B0"/></svg><svg fill="none" viewBox="0 0 3 34" id="phone-line" xmlns="http://www.w3.org/2000/svg"><path stroke="#fff" stroke-width="1.5" d="M1.56 0v34"/></svg><svg fill="none" viewBox="0 0 24 24" id="search" xmlns="http://www.w3.org/2000/svg"><path d="M17.305 4.626a8.966 8.966 0 0 1 0 12.68 8.966 8.966 0 1 1 0-12.68M22.003 22l-4.7-4.7" stroke="#E9D3B0" stroke-width="3" stroke-linecap="round" stroke-linejoin="round"/></svg><svg fill="none" viewBox="0 0 18 19" id="search_2" xmlns="http://www.w3.org/2000/svg"><path d="M10.645 4.7a4.457 4.457 0 0 1 0 6.315 4.487 4.487 0 0 1-6.334 0 4.457 4.457 0 0 1 0-6.315 4.487 4.487 0 0 1 6.334 0M10.612 11.04 15 15.475" stroke="#000" stroke-opacity=".75" stroke-width="1.5" stroke-linecap="round" stroke-linejoin="round"/></svg><svg fill="none" viewBox="0 0 34 34" id="tel" xmlns="http://www.w3.org/2000/svg"><circle cx="17" cy="17" r="16.25" stroke="#fff" stroke-width="1.5"/><path fill-rule="evenodd" clip-rule="evenodd" d="M15.325 17.675a12.975 12.975 0 0 1-2.71-3.912.769.769 0 0 1 .17-.85l.842-.84c.69-.689.69-1.664.087-2.266l-1.206-1.205a2.054 2.054 0 0 0-2.904 0l-.67.67c-.76.76-1.078 1.858-.873 2.947.508 2.684 2.067 5.623 4.582 8.138 2.515 2.515 5.454 4.075 8.138 4.582 1.089.205 2.187-.112 2.948-.873l.668-.669a2.054 2.054 0 0 0 0-2.904l-1.204-1.205a1.54 1.54 0 0 0-2.179 0l-.927.928a.769.769 0 0 1-.85.17 13.003 13.003 0 0 1-3.912-2.71Z" fill="#fff" stroke="#fff" stroke-width="1.5" stroke-linecap="round" stroke-linejoin="round"/></svg></svg>