<svg width="24" height="25" viewBox="0 0 24 25" fill="none" xmlns="http://www.w3.org/2000/svg">
<path d="M4.61538 5.11538L3.68647 1.5H1" stroke="white" stroke-width="1.80769" stroke-linecap="round" stroke-linejoin="round"/>
<path fill-rule="evenodd" clip-rule="evenodd" d="M6.94723 16.1089L4.61523 5.11548H21.368C22.2111 5.11548 22.8384 5.90149 22.6624 6.73571L20.6745 16.1089C20.5435 16.7262 20.0048 17.1668 19.3801 17.1668H8.24029C7.61692 17.1668 7.07826 16.7262 6.94723 16.1089Z" stroke="white" stroke-width="1.80769" stroke-linecap="round" stroke-linejoin="round"/>
<path d="M19.6773 22.1379C19.4279 22.1379 19.2254 22.3404 19.2278 22.5899C19.2278 22.8393 19.4303 23.0418 19.6797 23.0418C19.9292 23.0418 20.1316 22.8393 20.1316 22.5899C20.1304 22.3404 19.928 22.1379 19.6773 22.1379" stroke="white" stroke-width="1.80769" stroke-linecap="round" stroke-linejoin="round"/>
<path d="M8.83172 22.1379C8.58226 22.1379 8.3798 22.3404 8.38221 22.5899C8.38101 22.8393 8.58347 23.0418 8.83293 23.0418C9.08239 23.0418 9.28485 22.8393 9.28485 22.5899C9.28485 22.3404 9.08239 22.1379 8.83172 22.1379" stroke="white" stroke-width="1.80769" stroke-linecap="round" stroke-linejoin="round"/>
</svg>
