<svg width="25" height="25" viewBox="0 0 25 25" fill="none" xmlns="http://www.w3.org/2000/svg">
<path fill-rule="evenodd" clip-rule="evenodd" d="M6.75488 1H18.2864C21.4634 1 24.04 3.57536 24.04 6.75488V18.2864C24.04 21.4634 21.4646 24.04 18.2851 24.04H6.75488C3.57664 24.04 1 21.4646 1 18.2851V6.75488C1 3.57664 3.57536 1 6.75488 1V1Z" stroke="#C4504C" stroke-width="1.5" stroke-linecap="round" stroke-linejoin="round"/>
<path d="M18.8547 5.75243C18.6166 5.75371 18.4233 5.94699 18.4233 6.18507C18.4233 6.42315 18.6179 6.61643 18.856 6.61643C19.094 6.61643 19.2873 6.42315 19.2873 6.18507C19.2886 5.94571 19.094 5.75243 18.8547 5.75243" stroke="#C4504C" stroke-width="1.5" stroke-linecap="round" stroke-linejoin="round"/>
<path d="M15.7785 9.26176C17.578 11.0613 17.578 13.9789 15.7785 15.7785C13.9789 17.578 11.0613 17.578 9.26176 15.7785C7.46222 13.9789 7.46222 11.0613 9.26176 9.26176C11.0613 7.46222 13.9789 7.46222 15.7785 9.26176" stroke="#C4504C" stroke-width="1.5" stroke-linecap="round" stroke-linejoin="round"/>
</svg>
