<svg width="24" height="25" viewBox="0 0 24 25" fill="none" xmlns="http://www.w3.org/2000/svg">
<path fill-rule="evenodd" clip-rule="evenodd" d="M23.2612 5.58162C23.1302 2.75264 20.7958 0.5 17.9343 0.5H12.0485L11.7968 0.505815C8.96116 0.637126 6.70375 2.97604 6.70375 5.84354V6.96792L6.71201 7.09057C6.77185 7.53174 7.15002 7.87177 7.6076 7.87177C8.10678 7.87177 8.51145 7.4671 8.51145 6.96792V5.84354L8.51745 5.63572C8.62497 3.77912 10.164 2.30769 12.0485 2.30769H17.9343L18.1415 2.31367C19.9923 2.42086 21.4593 3.95501 21.4593 5.83269V19.2578L21.4533 19.4656C21.3457 21.3222 19.8058 22.7949 17.9223 22.7949H12.0352L11.8282 22.7889C9.97882 22.6816 8.51145 21.1467 8.51145 19.2699V18.1346L8.5032 18.012C8.44335 17.5708 8.06518 17.2308 7.6076 17.2308C7.10842 17.2308 6.70375 17.6355 6.70375 18.1346V19.2699L6.7099 19.5282C6.84466 22.3528 9.1776 24.6026 12.0352 24.6026H17.9223L18.1739 24.5967C21.0087 24.4654 23.267 22.1251 23.267 19.2578V5.83269L23.2612 5.58162ZM12.2461 8.39931C12.5663 8.07776 13.0684 8.04756 13.4228 8.30938L13.5243 8.39668L17.053 11.9108C17.3754 12.232 17.4047 12.7358 17.1409 13.0902L17.1378 13.0938C17.1125 13.1275 17.0848 13.1593 17.0551 13.1892L17.053 13.1917L13.5243 16.7058C13.1706 17.0581 12.5984 17.0569 12.2461 16.7032C11.9259 16.3817 11.8977 15.8795 12.161 15.5262L12.2487 15.425L14.2261 13.4551H1.90385C1.40467 13.4551 1 13.0505 1 12.5513C1 12.0937 1.34003 11.7155 1.7812 11.6557L1.90385 11.6474H14.2258L12.2487 9.67754C11.9272 9.35731 11.897 8.85524 12.1588 8.50086L12.2461 8.39931Z" fill="white"/>
</svg>
