<svg width="25" height="25" viewBox="0 0 25 25" fill="none" xmlns="http://www.w3.org/2000/svg">
<path fill-rule="evenodd" clip-rule="evenodd" d="M6.76 1H18.2851C21.4634 1 24.04 3.57664 24.04 6.75488V18.2864C24.04 21.4634 21.4634 24.04 18.2851 24.04H6.75488C3.57664 24.04 1 21.4634 1 18.2851V6.76C1 3.5792 3.5792 1 6.76 1V1Z" stroke="#C4504C" stroke-width="1.5" stroke-linecap="round" stroke-linejoin="round"/>
<path d="M10.8356 9.50439H12.3908V17.2817H12.3883C10.787 17.2817 9.02699 16.3089 7.77899 14.5169C5.90507 11.8903 5.39307 9.90503 5.39307 9.50567" stroke="#C4504C" stroke-width="1.5" stroke-linecap="round" stroke-linejoin="round"/>
<path d="M18.4824 17.2814C18.4824 17.2814 17.9167 16.0884 16.7685 14.7764C16.0031 13.8791 14.9253 13.394 13.9448 13.394C14.9253 13.394 16.0031 12.9076 16.7685 12.0116C17.9167 10.6983 18.4824 9.50537 18.4824 9.50537" stroke="#C4504C" stroke-width="1.5" stroke-linecap="round" stroke-linejoin="round"/>
<path d="M13.9447 13.3954H12.3882" stroke="#C4504C" stroke-width="1.5" stroke-linecap="round" stroke-linejoin="round"/>
</svg>
