<svg width="126" height="37" viewBox="0 0 126 37" fill="none" xmlns="http://www.w3.org/2000/svg">
<g opacity="0.7" clip-path="url(#clip0_663_2045)">
<path d="M16.3097 3.08897V1.18171H22.6032V8.27696H16.2575C15.6871 7.29763 14.8381 6.50782 13.8173 6.00689C12.7961 5.519 11.6758 5.27076 10.5428 5.2813C9.71172 5.21448 8.88204 5.42613 8.18602 5.88251C7.95209 6.05436 7.76219 6.2786 7.63173 6.53704C7.50128 6.79547 7.43395 7.08083 7.43519 7.36997C7.42325 7.78335 7.5706 8.18563 7.84711 8.49463C8.20732 8.84399 8.66531 9.07704 9.16107 9.16322C9.76243 9.30488 10.8539 9.49147 12.4356 9.72297C14.5977 10.0408 16.0246 10.2827 16.7164 10.4486C17.694 10.6786 18.6395 11.0267 19.532 11.4851C20.2439 11.885 20.888 12.394 21.4404 12.9933C22.0538 13.6695 22.5285 14.4582 22.8378 15.3152C23.1965 16.2929 23.3731 17.3273 23.3592 18.3679C23.3868 19.4671 23.1713 20.559 22.7281 21.5664C22.2848 22.5739 21.6246 23.4724 20.7938 24.1985C19.0871 25.7292 16.7494 26.4945 13.7808 26.4945C12.4272 26.5211 11.0808 26.2925 9.81284 25.8207C8.79631 25.4513 7.86908 24.8739 7.09105 24.126V25.9555H0.834065V18.1813H7.26311C7.81616 19.186 8.6072 20.0417 9.56777 20.6742C10.5271 21.2395 11.6285 21.5217 12.7432 21.4879C13.6247 21.5582 14.5043 21.3319 15.2408 20.8453C15.495 20.6457 15.6989 20.3901 15.8365 20.0987C15.9741 19.8072 16.0415 19.4879 16.0333 19.166C16.059 18.7274 15.9154 18.2955 15.6318 17.9584C15.1053 17.5488 14.4794 17.2842 13.8173 17.1914C13.1221 17.029 11.8881 16.832 10.1153 16.6005C8.74959 16.4514 7.39823 16.1931 6.07428 15.8283C4.89864 15.4822 3.79119 14.9388 2.7998 14.2216C1.95624 13.5771 1.26111 12.7607 0.761059 11.8272C0.259572 10.8544 -0.00195312 9.77692 -0.00195312 8.68381C-0.00195312 7.59071 0.259572 6.51328 0.761059 5.54044C1.73793 3.7146 3.35062 2.30507 5.29738 1.5756C6.73011 1.06567 8.24441 0.819788 9.76591 0.850009C10.9858 0.822298 12.2019 0.997472 13.3637 1.36829C14.4402 1.76442 15.4376 2.34698 16.3097 3.08897Z" fill="#E9D3B0" fill-opacity="0.6"/>
<path d="M38.1986 23.3437C36.7615 23.3462 35.3359 23.0898 33.9908 22.587C32.7013 22.1227 31.5122 21.4192 30.4869 20.5139C29.5517 19.6911 28.7729 18.708 28.1874 17.6115C27.4654 16.2672 27.0892 14.7663 27.0925 13.2424C27.0855 12.1179 27.2888 11.002 27.6921 9.95133C28.0644 8.97367 28.5926 8.06194 29.2563 7.2511C29.9194 6.46393 30.6837 5.76691 31.5297 5.17798C32.4679 4.524 33.5045 4.02195 34.6009 3.69052C35.7715 3.32385 36.9921 3.13855 38.2195 3.14114C39.4387 3.12516 40.6528 3.30006 41.8172 3.65942C42.8713 3.98642 43.8723 4.46297 44.7893 5.07433C45.6505 5.65973 46.4291 6.35695 47.1044 7.14745C48.535 8.8554 49.3239 11.0045 49.336 13.2269C49.3545 14.6498 49.0272 16.0562 48.3819 17.3265C47.2283 19.6127 45.2874 21.4114 42.9122 22.3952C41.4216 23.0245 39.8181 23.3471 38.1986 23.3437ZM39.2414 8.5468C38.4488 8.54445 37.6679 8.73674 36.9681 9.10655C36.2332 9.49824 35.6256 10.0896 35.2161 10.8117C34.7754 11.5356 34.5411 12.3651 34.5383 13.2113C34.5401 14.0306 34.7634 14.8343 35.1848 15.5384C35.591 16.2545 36.1906 16.8434 36.9159 17.2384C37.6266 17.6268 38.4252 17.8284 39.2362 17.824C40.0447 17.8267 40.8408 17.627 41.5513 17.2435C42.2776 16.8568 42.878 16.2726 43.2824 15.5591C43.7032 14.8475 43.9247 14.0368 43.9237 13.2113C43.9238 12.3652 43.6951 11.5347 43.2616 10.8065C42.857 10.0839 42.2502 9.49337 41.5148 9.10655C40.8148 8.73653 40.0343 8.54258 39.2414 8.54162V8.5468Z" fill="#E9D3B0" fill-opacity="0.6"/>
<path d="M52.2041 4.81494L61.8503 5.94998V8.76941L60.1713 8.65538V13.9833C60.1659 14.3335 60.2116 14.6827 60.3069 15.0199C60.4132 15.5181 60.659 15.9762 61.016 16.3415C61.3829 16.6313 61.8215 16.8174 62.2858 16.8804C62.7501 16.9433 63.2229 16.8807 63.6544 16.6991C63.9689 16.5806 64.2524 16.3928 64.4834 16.1497C64.8751 15.7134 65.0905 15.1485 65.0883 14.5638V9.09075L63.6544 8.95599V6.20912L70.2399 7.01763L70.3389 9.3188L69.1553 9.38616C69.1553 10.941 69.1553 12.2989 69.1553 13.9367C69.2393 15.0972 69.0314 16.2603 68.5505 17.321C68.3514 17.7138 68.0929 18.0738 67.784 18.3887C67.3028 18.8387 66.7378 19.1908 66.1207 19.4253C65.5063 19.7038 64.8675 19.9259 64.2123 20.0887C63.2441 20.3162 62.2554 20.4464 61.2611 20.4774C60.4228 20.5767 59.5757 20.5767 58.7374 20.4774C57.9656 20.3587 57.2209 20.1061 56.5371 19.731C56.1041 19.5138 55.7207 19.2104 55.4108 18.8396C55.1841 18.5532 55.0078 18.2308 54.8894 17.886C54.5762 16.9473 54.428 15.9619 54.4514 14.9732L54.4201 8.3807L52.2354 8.12156L52.2041 4.81494Z" fill="#E9D3B0" fill-opacity="0.6"/>
<path d="M77.206 37.0002C91.6045 37.0002 103.277 33.9836 103.277 30.2625C103.277 26.5414 91.6045 23.5249 77.206 23.5249C62.8075 23.5249 51.1353 26.5414 51.1353 30.2625C51.1353 33.9836 62.8075 37.0002 77.206 37.0002Z" fill="#E9D3B0"/>
<path d="M57.9346 28.163V27.8986H59.0452V29.3602H57.9398C57.878 29.2186 57.7719 29.1005 57.6374 29.0233C57.4537 28.9282 57.2445 28.893 57.0395 28.9227C56.8345 28.9525 56.6442 29.0457 56.4955 29.1892C56.4022 29.2921 56.3307 29.4125 56.285 29.5433C56.2393 29.6742 56.2205 29.8128 56.2296 29.951C56.2222 30.1608 56.267 30.369 56.36 30.5574C56.437 30.7092 56.5589 30.834 56.7093 30.915C56.8376 30.9767 56.9788 31.0069 57.1212 31.0032C57.2508 31.0045 57.3796 30.9835 57.5019 30.9409C57.5989 30.9108 57.688 30.8594 57.7626 30.7907C57.828 30.7217 57.8794 30.6407 57.9138 30.5522H57.3924V29.7696H59.624V30.5937H59.2382V32.0397H58.1953V31.6199C58.0339 31.7925 57.841 31.9331 57.627 32.0345C57.4176 32.1221 57.1919 32.1645 56.9648 32.1589C56.6966 32.1665 56.4298 32.1178 56.1819 32.016C55.9339 31.9142 55.7103 31.7616 55.5257 31.5681C55.1383 31.144 54.9341 30.5856 54.9574 30.0132C54.9511 29.6593 55.013 29.3074 55.1398 28.9767C55.2219 28.7721 55.3383 28.5828 55.484 28.4169C55.643 28.2363 55.8361 28.0885 56.0523 27.9816C56.3129 27.8598 56.5988 27.8011 56.8866 27.8105C57.0828 27.8063 57.2783 27.8344 57.4654 27.8935C57.6353 27.9577 57.7938 28.0487 57.9346 28.163Z" fill="black"/>
<path d="M60.5049 32.0243V31.1795H60.9168V28.7384H60.5205V27.8936H62.8304C63.1124 27.8887 63.3945 27.9008 63.6751 27.9299C63.825 27.945 63.9723 27.9799 64.1131 28.0336C64.2225 28.0817 64.3217 28.1503 64.4051 28.2357C64.4963 28.3283 64.5658 28.4398 64.6084 28.5622C64.6557 28.6989 64.6786 28.8427 64.6762 28.9872C64.6874 29.2139 64.6151 29.4368 64.4728 29.6143C64.3036 29.7909 64.0796 29.9059 63.8367 29.9408L64.233 30.0393C64.3017 30.059 64.3656 30.0925 64.4207 30.1378C64.459 30.1733 64.4877 30.2179 64.5041 30.2674C64.5322 30.3827 64.5445 30.5012 64.5406 30.6198V31.1847H64.8795V32.0295H63.3153V30.9929C63.3207 30.8729 63.3101 30.7527 63.284 30.6353C63.2691 30.5723 63.2366 30.5148 63.1902 30.4695C63.1334 30.426 63.0674 30.3959 62.9972 30.3814C62.8898 30.3703 62.7814 30.3703 62.674 30.3814H62.1995V31.1899H62.601V32.0347L60.5049 32.0243ZM62.1786 28.7384V29.5729H62.6114C62.8108 29.5926 63.0118 29.5548 63.1902 29.464C63.2385 29.4238 63.2764 29.3728 63.3009 29.3151C63.3254 29.2574 63.3357 29.1948 63.3309 29.1323C63.3351 29.0436 63.3094 28.9561 63.2579 28.8836C63.2099 28.8223 63.1416 28.78 63.065 28.7643C62.9272 28.7421 62.7875 28.7334 62.6479 28.7384H62.1786Z" fill="black"/>
<path d="M67.9301 32.0243H65.8027V31.1795H66.2146V28.7383H65.8027V27.8936H67.9301V28.7383H67.4921V31.1795H67.9301V32.0243Z" fill="black"/>
<path d="M68.8423 32.0243V31.1795H69.2855V28.7383H68.8579V27.8936H70.9853V28.7383H70.5577V31.1795H71.6006L71.7883 30.3709H72.586V32.0243H68.8423Z" fill="black"/>
<path d="M73.4883 32.0243V31.1795H73.9158V28.7383H73.4883V27.8936H75.6157V28.7383H75.1881V31.1795H76.2309L76.4186 30.3709H77.2164V32.0243H73.4883Z" fill="black"/>
<path d="M80.6318 29.7181L81.4139 30.5163C81.5883 30.3835 81.7205 30.2036 81.7946 29.998H81.4713V29.2465H83.0355V30.0654H82.6705C82.6067 30.2468 82.5228 30.4207 82.4203 30.5837C82.2968 30.7726 82.1516 30.9465 81.9875 31.102L82.1335 31.2626H82.8426V32.0711H81.4348L81.148 31.7861C80.9406 31.9029 80.7201 31.9951 80.491 32.0608C80.268 32.1183 80.0383 32.1462 79.808 32.1437C79.4414 32.1631 79.0776 32.0709 78.7651 31.8794C78.6122 31.7798 78.4853 31.6455 78.3946 31.4877C78.3039 31.3299 78.2521 31.153 78.2435 30.9715C78.2348 30.79 78.2696 30.609 78.3448 30.4434C78.4201 30.2778 78.5338 30.1323 78.6765 30.0187C78.8051 29.9211 78.9452 29.8393 79.0936 29.7751C78.9606 29.6625 78.8508 29.5252 78.7704 29.3709C78.6871 29.2289 78.6405 29.0687 78.6348 28.9044C78.6376 28.7334 78.6881 28.5665 78.7808 28.4224C78.8848 28.2576 79.0379 28.129 79.2188 28.0545C79.4382 27.9632 79.6745 27.9191 79.9123 27.9249C80.2409 27.9013 80.567 27.9971 80.83 28.1944C80.9288 28.2777 81.0077 28.3818 81.061 28.4993C81.1142 28.6168 81.1404 28.7445 81.1376 28.8733C81.1438 29.0548 81.0987 29.2344 81.0072 29.3916C80.9051 29.5241 80.7775 29.6351 80.6318 29.7181ZM80.4754 31.0812L79.7141 30.3349C79.6162 30.3827 79.5333 30.4562 79.4743 30.5474C79.4116 30.6334 79.377 30.7366 79.3752 30.8428C79.3772 30.9795 79.4334 31.1099 79.5316 31.2056C79.5823 31.2571 79.6433 31.2976 79.7106 31.3243C79.778 31.3511 79.8502 31.3636 79.9227 31.3611C80.0301 31.3621 80.1363 31.3377 80.2323 31.29C80.3284 31.2422 80.4117 31.1725 80.4754 31.0864V31.0812ZM79.954 29.262C80.0028 29.2564 80.0499 29.2405 80.0921 29.2155C80.1343 29.1905 80.1708 29.1569 80.199 29.1169C80.2811 29.0259 80.3258 28.9075 80.3242 28.7852C80.3264 28.7384 80.3187 28.6916 80.3016 28.6479C80.2846 28.6041 80.2585 28.5644 80.2251 28.5313C80.1507 28.4657 80.0532 28.4322 79.954 28.438C79.8459 28.4317 79.7395 28.467 79.6568 28.5365C79.6215 28.5687 79.5935 28.608 79.5746 28.6518C79.5557 28.6955 79.5464 28.7428 79.5473 28.7904C79.5488 28.8618 79.5665 28.9319 79.599 28.9956C79.6315 29.0593 79.678 29.115 79.735 29.1584C79.7966 29.2228 79.8804 29.2617 79.9696 29.2672L79.954 29.262Z" fill="black"/>
<path d="M84.125 32.0245V31.1797H84.5369V28.7386H84.1094V27.8938H86.7164C86.9794 27.8863 87.2423 27.9124 87.4986 27.9716C87.6912 28.0231 87.8615 28.136 87.9835 28.2929C88.1168 28.4705 88.1849 28.6882 88.1764 28.9097C88.1875 29.1323 88.1171 29.3514 87.9783 29.5264C87.8202 29.6972 87.6091 29.8104 87.3786 29.8478C87.6496 29.8651 87.9051 29.9793 88.0982 30.1691C88.2619 30.3706 88.3437 30.6258 88.3276 30.8843C88.3294 31.0394 88.3048 31.1936 88.2546 31.3404C88.2123 31.4658 88.1409 31.5794 88.0461 31.6721C87.9566 31.7561 87.8523 31.8229 87.7384 31.8691C87.5699 31.929 87.3949 31.9691 87.217 31.9883C86.9798 32.0134 86.7412 32.0238 86.5027 32.0194L84.125 32.0245ZM85.7831 28.6972V29.5316H86.1533C86.3054 29.5356 86.4575 29.5234 86.6069 29.4953C86.7024 29.478 86.7889 29.4286 86.852 29.3554C86.9099 29.2816 86.9395 29.1897 86.9354 29.0962C86.9389 29.0402 86.9289 28.9842 86.9063 28.9328C86.8836 28.8815 86.8489 28.8362 86.8051 28.8008C86.6442 28.7194 86.4634 28.6852 86.2837 28.7024L85.7831 28.6972ZM85.7831 30.2157V31.1901H86.2472C86.4718 31.2068 86.6971 31.1695 86.9042 31.0813C86.9661 31.0417 87.0158 30.9859 87.048 30.9201C87.0802 30.8543 87.0936 30.781 87.0867 30.7081C87.0926 30.6385 87.0821 30.5684 87.0558 30.5036C87.0295 30.4388 86.9883 30.381 86.9354 30.3349C86.7399 30.2336 86.5186 30.1921 86.2993 30.2157H85.7831Z" fill="black"/>
<path d="M89.4072 32.0245V31.1797H89.8192V28.7386H89.3916V27.8938H91.9987C92.2617 27.8863 92.5245 27.9124 92.7808 27.9716C92.9734 28.0231 93.1438 28.136 93.2657 28.2929C93.3991 28.4705 93.4672 28.6882 93.4586 28.9097C93.4697 29.1323 93.3994 29.3514 93.2605 29.5264C93.1025 29.6972 92.8913 29.8104 92.6609 29.8478C92.9319 29.8651 93.1874 29.9793 93.3804 30.1691C93.5441 30.3706 93.626 30.6258 93.6099 30.8843C93.6117 31.0394 93.587 31.1936 93.5369 31.3404C93.4946 31.4658 93.4231 31.5794 93.3283 31.6721C93.2389 31.7561 93.1346 31.8229 93.0207 31.8691C92.8522 31.929 92.6772 31.9691 92.4992 31.9883C92.262 32.0134 92.0234 32.0238 91.7849 32.0194L89.4072 32.0245ZM91.0653 28.6972V29.5316H91.4356C91.5876 29.5356 91.7397 29.5234 91.8892 29.4953C91.9846 29.478 92.0712 29.4286 92.1343 29.3554C92.1921 29.2816 92.2217 29.1897 92.2177 29.0962C92.2212 29.0402 92.2112 28.9842 92.1885 28.9328C92.1658 28.8815 92.1311 28.8362 92.0873 28.8008C91.9265 28.7194 91.7456 28.6852 91.5659 28.7024L91.0653 28.6972ZM91.0653 30.2157V31.1901H91.5294C91.754 31.2068 91.9794 31.1695 92.1864 31.0813C92.2483 31.0417 92.2981 30.9859 92.3303 30.9201C92.3625 30.8543 92.3758 30.781 92.3689 30.7081C92.3749 30.6385 92.3643 30.5684 92.338 30.5036C92.3118 30.4388 92.2706 30.381 92.2177 30.3349C92.0222 30.2336 91.8008 30.1921 91.5816 30.2157H91.0653Z" fill="black"/>
<path d="M98.3547 31.5888H99.0065V32.4595H97.7968L97.5517 32.0501C97.3159 32.1257 97.0696 32.1642 96.8217 32.1641C96.5325 32.1728 96.2445 32.1225 95.9755 32.0164C95.7065 31.9104 95.4621 31.7507 95.2575 31.5474C95.0518 31.3375 94.8911 31.0882 94.7854 30.8146C94.6796 30.5411 94.6309 30.2491 94.6422 29.9562C94.6327 29.5732 94.7244 29.1943 94.9082 28.8575C95.0888 28.5462 95.3498 28.2885 95.6642 28.1112C96.0184 27.9247 96.4131 27.8271 96.8139 27.8271C97.2147 27.8271 97.6095 27.9247 97.9636 28.1112C98.2809 28.2907 98.5452 28.5498 98.7301 28.8627C98.9297 29.224 99.027 29.6324 99.0117 30.0444C99.0253 30.3343 98.975 30.6238 98.8642 30.8923C98.7534 31.1609 98.5849 31.4022 98.3703 31.5992L98.3547 31.5888ZM96.8478 30.9669L96.5297 30.4486L97.2128 30.0495L97.5517 30.5989C97.6048 30.5274 97.6438 30.4465 97.6664 30.3605C97.703 30.2377 97.7206 30.1102 97.7186 29.9822C97.7343 29.7139 97.6445 29.45 97.4683 29.2462C97.3831 29.1598 97.2806 29.092 97.1675 29.0474C97.0543 29.0027 96.933 28.9822 96.8113 28.9871C96.6908 28.9827 96.5708 29.004 96.4592 29.0496C96.3477 29.0952 96.2473 29.164 96.1648 29.2514C95.9898 29.4539 95.9001 29.7156 95.9145 29.9822C95.906 30.1895 95.9586 30.3948 96.0657 30.573C96.1549 30.7169 96.2857 30.8307 96.4411 30.8995C96.5692 30.948 96.7056 30.9709 96.8426 30.9669H96.8478Z" fill="black"/>
<path d="M28.2764 35.5125L50.4834 32.5791L49.8734 31.7446L28.2764 34.4863V35.5125Z" fill="#E9D3B0"/>
<path d="M28.2764 33.4498L49.9203 30.6822L49.8734 29.6768L28.2764 32.4184V33.4498Z" fill="#E9D3B0"/>
<path d="M28.2764 30.0187V31.0553L50.7598 28.2047L51.4376 27.0801L28.2764 30.0187Z" fill="#E9D3B0"/>
<path d="M126.005 35.5125L103.798 32.5791L104.408 31.7446L126.005 34.4863V35.5125Z" fill="#E9D3B0"/>
<path d="M126.005 33.4498L104.361 30.6822L104.408 29.6768L126.005 32.4184V33.4498Z" fill="#E9D3B0"/>
<path d="M126.005 30.0187V31.0553L103.522 28.2047L102.844 27.0801L126.005 30.0187Z" fill="#E9D3B0"/>
<path d="M17.6136 2.22322V0.315956H23.9227V7.43194H17.5614C16.991 6.45261 16.142 5.6628 15.1212 5.16187C14.1 4.67398 12.9797 4.42574 11.8467 4.43628C11.0156 4.36945 10.1859 4.5811 9.48991 5.03749C9.25597 5.20934 9.06607 5.43357 8.93562 5.69201C8.80516 5.95045 8.73783 6.23581 8.73907 6.52495C8.72713 6.93832 8.87448 7.34063 9.15099 7.64962C9.5112 7.99898 9.9692 8.23201 10.4649 8.31819C11.0663 8.45986 12.1578 8.64644 13.7394 8.87794C15.9016 9.19582 17.3285 9.43768 18.0203 9.60353C18.9978 9.83356 19.9434 10.1817 20.8359 10.6401C21.5478 11.04 22.1919 11.549 22.7443 12.1483C23.3577 12.8244 23.8324 13.6131 24.1417 14.4702C24.5004 15.4479 24.677 16.4823 24.6631 17.5228C24.6921 18.6226 24.4778 19.7152 24.0355 20.7236C23.5931 21.7319 22.9334 22.6315 22.1029 23.3587C20.3962 24.8893 18.0585 25.6547 15.0899 25.6547C13.7363 25.6813 12.3899 25.4526 11.1219 24.9809C10.1054 24.6114 9.17818 24.034 8.40015 23.2861V25.1156H2.14316V17.3414H8.57221C9.12526 18.3462 9.9163 19.2018 10.8769 19.8344C11.8362 20.3996 12.9376 20.6818 14.0523 20.6481C14.9338 20.7184 15.8134 20.492 16.5499 20.0054C16.8041 19.8059 17.0081 19.5503 17.1456 19.2588C17.2832 18.9674 17.3506 18.648 17.3424 18.3262C17.3681 17.8875 17.2245 17.4556 16.9409 17.1186C16.4144 16.7089 15.7885 16.4444 15.1264 16.3515C14.4312 16.1891 13.1972 15.9922 11.4244 15.7607C10.0587 15.6115 8.70733 15.3533 7.38338 14.9885C6.20774 14.6423 5.10029 14.0989 4.10889 13.3818C3.26533 12.7373 2.57021 11.9208 2.07016 10.9873C1.56867 10.0145 1.30713 8.93708 1.30713 7.84398C1.30713 6.75087 1.56867 5.67344 2.07016 4.70061C3.04703 2.87476 4.65972 1.46524 6.60648 0.735762C8.03921 0.225837 9.55349 -0.0200553 11.075 0.0101652C12.2949 -0.0175458 13.511 0.157628 14.6728 0.528445C15.7456 0.917267 16.7411 1.49097 17.6136 2.22322Z" fill="#E9D3B0"/>
<path d="M39.5023 22.4623C38.0653 22.4649 36.6396 22.2085 35.2945 21.7057C34.005 21.2414 32.816 20.5379 31.7906 19.6325C30.8555 18.8097 30.0766 17.8267 29.4911 16.7302C28.7691 15.3859 28.3929 13.8849 28.3962 12.3611C28.3892 11.2366 28.5925 10.1206 28.9958 9.06999C29.3681 8.09233 29.8963 7.1806 30.5601 6.36976C31.2231 5.58259 31.9874 4.88557 32.8334 4.29664C33.7716 3.64266 34.8082 3.1406 35.9046 2.80917C37.0753 2.4425 38.2958 2.2572 39.5232 2.25979C40.7424 2.24381 41.9565 2.41871 43.121 2.77807C44.175 3.10507 45.176 3.58162 46.093 4.19297C46.9542 4.77838 47.7328 5.47559 48.4081 6.26609C49.8387 7.97404 50.6276 10.1231 50.6398 12.3455C50.6582 13.7685 50.3309 15.1748 49.6856 16.4451C48.532 18.7314 46.5911 20.5301 44.2159 21.5139C42.7253 22.1432 41.1218 22.4658 39.5023 22.4623ZM40.5452 7.66546C39.7526 7.66311 38.9716 7.85538 38.2718 8.22519C37.5369 8.61688 36.9293 9.20828 36.5198 9.93034C36.0791 10.6543 35.8448 11.4838 35.842 12.33C35.8382 13.1598 36.0617 13.975 36.4886 14.6881C36.8947 15.4042 37.4944 15.9931 38.2197 16.3881C38.9303 16.7766 39.7289 16.9782 40.5399 16.9738C41.3484 16.9764 42.1446 16.7768 42.855 16.3933C43.5813 16.0066 44.1817 15.4223 44.5861 14.7089C45.007 13.9972 45.2284 13.1865 45.2275 12.3611C45.2275 11.515 44.9988 10.6844 44.5653 9.95624C44.1607 9.23361 43.5539 8.64311 42.8185 8.25629C42.1199 7.88087 41.3393 7.68155 40.5452 7.67582V7.66546Z" fill="#E9D3B0"/>
<path d="M77.2217 11.6974C77.2842 9.92835 77.3486 8.15409 77.4146 6.37466C82.7435 5.78382 88.0741 5.26554 93.4064 4.81982V11.0392L90.3405 11.1688L89.6731 8.54109L87.8533 8.70692V17.5177L89.7043 17.6576V20.8036C86.767 20.5894 83.8297 20.3527 80.8924 20.0935V16.9839L82.8008 17.129V9.14228L80.9498 9.31332L80.2876 11.5782L77.2217 11.6974Z" fill="#E9D3B0" fill-opacity="0.6"/>
<path d="M99.4858 21.6481L99.5745 18.1912L101.071 18.1601V7.88779L99.5067 7.95517V4.39459L107.849 3.39949V7.13628L106.113 7.3747V10.5725L112.615 10.1216L112.5 6.75276L110.827 6.88233V3.03669L120.515 1.8291L120.556 5.88723L118.512 6.18784L118.471 17.6781L120.515 17.7662L120.473 21.6118H110.696L110.785 17.8543L112.521 17.8958L112.61 14.2263L106.05 14.6565V17.9372H107.813L107.771 21.7362L99.4858 21.6481Z" fill="#E9D3B0" fill-opacity="0.6"/>
<path d="M78.1914 10.7438C78.254 8.97473 78.3183 7.20048 78.3843 5.42105C83.7132 4.83021 89.0438 4.31193 94.3761 3.86621V10.0856L91.3102 10.2151L90.6428 7.58746L88.8231 7.75331V16.5641L90.6741 16.704V19.85C87.7368 19.6357 84.7995 19.3991 81.8622 19.1399V16.0302L83.7705 16.1754V8.18866L81.9195 8.3597L81.2782 10.6142L78.1914 10.7438Z" fill="#E9D3B0"/>
<path d="M100.456 20.6948L100.545 17.2379L102.041 17.2068V6.93449L100.477 7.00187V3.44128L108.82 2.44618V6.18297L107.083 6.42138V9.61917L113.585 9.16827L113.471 5.79945L111.797 5.92902V2.08338L121.427 0.870605L121.469 4.92875L119.425 5.22934L119.383 16.7196L121.427 16.8077L121.386 20.6534H111.666L111.755 16.8958L113.491 16.9373L113.58 13.2679L107.021 13.698V16.9788H108.783L108.741 20.7777L100.456 20.6948Z" fill="#E9D3B0"/>
<path d="M53.5078 3.94385L63.154 5.07888V7.89833L61.475 7.7843L61.4646 13.133C61.4592 13.4832 61.5049 13.8323 61.6002 14.1695C61.7065 14.6677 61.9523 15.1259 62.3093 15.4911C62.6762 15.7809 63.1148 15.9671 63.5791 16.03C64.0434 16.0929 64.5162 16.0303 64.9477 15.8487C65.2622 15.7302 65.5457 15.5424 65.7767 15.2994C66.1684 14.8631 66.3838 14.2982 66.3816 13.7134V8.21966L64.9477 8.08491V5.35876L71.5332 6.16727L71.6322 8.46844L70.4486 8.53582C70.4486 10.0907 70.4486 11.4485 70.4486 13.0863C70.5326 14.2468 70.3247 15.4099 69.8438 16.4707C69.6447 16.8634 69.3862 17.2235 69.0773 17.5383C68.5961 17.9883 68.0311 18.3404 67.414 18.5749C66.7996 18.8535 66.1608 19.0755 65.5056 19.2383C64.5374 19.4658 63.5487 19.5961 62.5544 19.627C61.7161 19.7263 60.869 19.7263 60.0307 19.627C59.2589 19.5083 58.5141 19.2557 57.8304 18.8807C57.3974 18.6635 57.014 18.36 56.7041 17.9892C56.4774 17.7029 56.3011 17.3804 56.1827 17.0356C55.8694 16.0969 55.7213 15.1116 55.7447 14.1229L55.729 7.50962L53.5443 7.25048L53.5078 3.94385Z" fill="#E9D3B0"/>
</g>
<defs>
<clipPath id="clip0_663_2045">
<rect width="126" height="37" fill="white"/>
</clipPath>
</defs>
</svg>
