<svg width="24" height="25" fill="none" xmlns="http://www.w3.org/2000/svg"><path d="M4.615 5.115 3.686 1.5H1" stroke="#fff" stroke-width="1.808" stroke-linecap="round" stroke-linejoin="round"/><path clip-rule="evenodd" d="M6.947 16.109 4.615 5.115h16.753c.843 0 1.47.786 1.294 1.62l-1.988 9.374a1.327 1.327 0 0 1-1.294 1.058H8.24c-.623 0-1.162-.44-1.293-1.058Z" stroke="#fff" stroke-width="1.808" stroke-linecap="round" stroke-linejoin="round"/><path d="M19.677 22.138a.452.452 0 1 0 .005.904.452.452 0 0 0-.005-.904M8.832 22.138a.449.449 0 0 0-.45.452.45.45 0 1 0 .903 0 .452.452 0 0 0-.453-.452" stroke="#fff" stroke-width="1.808" stroke-linecap="round" stroke-linejoin="round"/></svg>