<svg width="24" height="25" fill="none" xmlns="http://www.w3.org/2000/svg"><path fill-rule="evenodd" clip-rule="evenodd" d="M23.261 5.582A5.332 5.332 0 0 0 17.934.5h-5.886l-.251.006a5.343 5.343 0 0 0-5.093 5.338v1.124l.008.123a.904.904 0 0 0 1.8-.123V5.844l.005-.208a3.536 3.536 0 0 1 3.532-3.328h5.885l.207.006a3.525 3.525 0 0 1 3.318 3.519v13.425l-.006.208a3.537 3.537 0 0 1-3.53 3.329h-5.888l-.207-.006a3.525 3.525 0 0 1-3.317-3.52v-1.134l-.008-.123a.904.904 0 0 0-1.8.123v1.135l.007.258a5.333 5.333 0 0 0 5.325 5.075h5.887l.252-.006a5.345 5.345 0 0 0 5.093-5.34V5.834l-.006-.251ZM12.246 8.399a.904.904 0 0 1 1.177-.09l.101.088 3.529 3.514a.904.904 0 0 1 .088 1.18l-.003.003a.915.915 0 0 1-.083.095l-.002.003-3.529 3.514a.904.904 0 0 1-1.363-1.18l.088-.101 1.977-1.97H1.904a.904.904 0 0 1-.123-1.8l.123-.008h12.322l-1.977-1.97a.904.904 0 0 1-.09-1.176l.087-.102Z" fill="#fff"/></svg>