<svg width="24" height="25" fill="none" xmlns="http://www.w3.org/2000/svg"><path fill-rule="evenodd" clip-rule="evenodd" d="M23.261 5.582A5.332 5.332 0 0017.934.5h-5.886l-.251.006a5.343 5.343 0 00-5.093 5.338v1.124l.008.123a.904.904 0 001.8-.123V5.844l.005-.208a3.536 3.536 0 013.532-3.328h5.885l.207.006a3.525 3.525 0 013.318 3.519v13.425l-.006.208a3.537 3.537 0 01-3.53 3.329h-5.888l-.207-.006a3.525 3.525 0 01-3.317-3.52v-1.134l-.008-.123a.904.904 0 00-1.8.123v1.135l.007.258a5.333 5.333 0 005.325 5.075h5.887l.252-.006a5.345 5.345 0 005.093-5.34V5.834l-.006-.251zM12.246 8.399a.904.904 0 011.177-.09l.101.088 3.529 3.514a.904.904 0 01.088 1.18l-.003.003a.915.915 0 01-.083.095l-.002.003-3.529 3.514a.904.904 0 01-1.363-1.18l.088-.101 1.977-1.97H1.904a.904.904 0 01-.123-1.8l.123-.008h12.322l-1.977-1.97a.904.904 0 01-.09-1.176l.087-.102z" fill="#fff"/></svg>