<svg width="34" height="34" fill="none" xmlns="http://www.w3.org/2000/svg"><circle cx="17" cy="17" r="16.25" stroke="#fff" stroke-width="1.5"/><path fill-rule="evenodd" clip-rule="evenodd" d="M15.325 17.675a12.975 12.975 0 0 1-2.71-3.912.769.769 0 0 1 .17-.85l.842-.84c.69-.689.69-1.664.087-2.266l-1.206-1.205a2.054 2.054 0 0 0-2.904 0l-.67.67c-.76.76-1.078 1.858-.873 2.947.508 2.684 2.067 5.623 4.582 8.138 2.515 2.515 5.454 4.075 8.138 4.582 1.089.205 2.187-.112 2.948-.873l.668-.669a2.054 2.054 0 0 0 0-2.904l-1.204-1.205a1.54 1.54 0 0 0-2.179 0l-.927.928a.769.769 0 0 1-.85.17 13.003 13.003 0 0 1-3.912-2.71Z" fill="#fff" stroke="#fff" stroke-width="1.5" stroke-linecap="round" stroke-linejoin="round"/></svg>