<svg width="25" height="25" fill="none" xmlns="http://www.w3.org/2000/svg"><path clip-rule="evenodd" d="M6.76 1h11.525a5.755 5.755 0 015.755 5.755v11.531a5.755 5.755 0 01-5.755 5.754H6.755A5.755 5.755 0 011 18.285V6.76A5.76 5.76 0 016.76 1v0z" stroke="#C4504C" stroke-width="1.5" stroke-linecap="round" stroke-linejoin="round"/><path d="M10.836 9.504h1.555v7.778h-.003c-1.601 0-3.361-.973-4.609-2.765-1.874-2.627-2.386-4.612-2.386-5.011M18.482 17.281s-.565-1.193-1.713-2.505c-.766-.897-1.844-1.382-2.824-1.382.98 0 2.058-.486 2.823-1.382 1.149-1.314 1.714-2.507 1.714-2.507M13.945 13.395h-1.557" stroke="#C4504C" stroke-width="1.5" stroke-linecap="round" stroke-linejoin="round"/></svg>