<svg width="159" height="150" fill="none" xmlns="http://www.w3.org/2000/svg"><circle cx="65.004" cy="59" r="59" fill="#A44B4C"/><path clip-rule="evenodd" d="M24.583 111.962c-4.202-.694-9.083-1.925-12.425-6.33-3.342-4.405-5.138-11.984-2.624-20.609 2.516-8.629 9.347-18.3 19.139-26.746 9.791-8.447 22.546-15.663 39.193-20.68 16.649-5.012 37.188-7.82 50.462-8.484 13.273-.665 19.283.815 23.131 4.41 3.848 3.596 5.541 9.304 3.544 14.225-1.997 4.92-7.687 9.054-15.893 11.898-8.209 2.847-18.938 4.406-27.152 7.8-8.214 3.394-13.912 8.62-18.006 14.2-4.098 5.58-6.596 11.513-11.148 16.075-4.555 4.567-11.165 7.766-17.67 10.081-6.507 2.316-12.91 3.745-17.873 4.383-4.96.633-8.48.472-12.678-.223z" stroke="#E9D3B0" stroke-width="2" stroke-linecap="round" stroke-linejoin="round"/><path d="M150.395 54.18c.691 2.474.633 5.124-.379 7.573-1.982 4.806-7.63 8.843-15.777 11.62-8.149 2.78-18.8 4.303-26.954 7.617-8.15 3.314-13.806 8.418-17.874 13.868-4.068 5.45-6.548 11.244-11.067 15.7-4.521 4.459-11.083 7.584-17.54 9.845-6.46 2.262-12.816 3.657-17.743 4.28-4.925.619-8.415.46-12.586-.218-3.722-.606-7.983-1.627-11.214-4.897M11.132 97.17c.689 2.976 1.382 5.953 2.228 8.762.846 2.808 1.852 5.446 3.11 7.431 1.259 1.982 2.772 3.31 4.282 4.64M141.561 38.081c1.557 2.298 3.118 4.595 4.238 7.25 1.123 2.656 1.806 5.67 2.488 8.685" stroke="#E9D3B0" stroke-width="2" stroke-linecap="round" stroke-linejoin="round"/><path clip-rule="evenodd" d="M39.447 72.294c-2.956 2.061-5.618 4.325-7.367 6.535-1.747 2.203-2.579 4.347-2.556 6.505.024 2.154.906 4.319 2.749 5.789 1.84 1.476 4.643 2.254 8.29 1.453 3.646-.803 8.139-3.19 11.699-6.089 3.561-2.906 6.195-6.333 7.658-9.4 1.46-3.062 1.748-5.765 1.047-7.591-.707-1.824-2.405-2.772-4.578-3.122-2.177-.349-4.836-.107-7.788.944-2.955 1.052-6.2 2.913-9.154 4.976z" stroke="#E9D3B0" stroke-width="2" stroke-linecap="round" stroke-linejoin="round"/><path clip-rule="evenodd" d="M38.304 77.447c-1.708 1.194-3.248 2.503-4.258 3.777-1.008 1.273-1.49 2.512-1.476 3.759.014 1.244.524 2.497 1.588 3.347 1.062.85 2.682 1.303 4.79.838 2.106-.462 4.703-1.842 6.763-3.52 2.056-1.679 3.577-3.656 4.422-5.43.846-1.77 1.012-3.333.606-4.385-.408-1.055-1.387-1.603-2.646-1.805-1.26-.202-2.794-.062-4.5.546-1.706.606-3.583 1.68-5.289 2.873z" stroke="#E9D3B0" stroke-width="2" stroke-linecap="round" stroke-linejoin="round"/><path clip-rule="evenodd" d="M34.747 60.165c-3.357 2.35-7.237 5.725-10.39 9.577-3.157 3.852-5.587 8.184-7.244 12.07-1.658 3.884-2.54 7.327-1.62 10.663.921 3.336 3.642 6.573 8.072 8.176 4.43 1.604 10.565 1.576 16.464 1.26 5.895-.312 11.556-.916 16.584-2.41 5.027-1.489 9.424-3.871 11.954-7.108 2.527-3.232 3.184-7.318 3-12.238-.181-4.916-1.206-10.664-2.285-14.977-1.08-4.312-2.218-7.191-4.498-9.172-2.284-1.98-5.717-3.064-9.406-3.055-3.693.01-7.647 1.113-11.042 2.327-3.395 1.215-6.23 2.537-9.589 4.887zM63.28 43.405c1.674-1.19 5.811-2.327 11.706-3.644 5.894-1.32 13.547-2.824 19.893-3.663 6.345-.842 11.388-1.023 13.637.293 2.25 1.317 1.707 4.134-.659 7.624-2.368 3.487-6.565 7.648-11.656 9.865-5.09 2.216-11.077 2.485-16.73 1.03-5.652-1.457-10.968-4.643-14.021-6.855-3.053-2.213-3.846-3.459-2.17-4.65zM76.973 62.616c-1.264 1.025-2.155 2.746-2.504 5.145-.35 2.4-.157 5.472.092 8.262.245 2.791.548 5.3 1.692 5.74 1.144.438 3.13-1.19 4.695-2.901 1.568-1.712 2.717-3.505 4.408-5.05 1.69-1.546 3.925-2.839 5.366-4.291 1.444-1.454 2.094-3.066 1.826-4.353-.27-1.29-1.458-2.251-3.451-2.9-1.994-.65-4.792-.986-7.011-.99-2.217-.006-3.849.314-5.113 1.338zM116.008 36.457c1.572-.792 4.182-1.08 7.294-.882 3.111.197 6.724.873 9.606 1.887 2.882 1.015 5.032 2.37 5.922 4.294.893 1.923.527 4.42-1.961 7.422-2.488 3-7.092 6.505-11.533 8.678-4.441 2.169-8.715 3.004-11.078 2.778-2.359-.23-2.808-1.524-2.768-3.663.043-2.143.574-5.13.971-8.126.397-2.995.658-5.993 1.054-8.145.396-2.151.925-3.451 2.493-4.243z" stroke="#E9D3B0" stroke-width="2" stroke-linecap="round" stroke-linejoin="round"/></svg>