<svg width="159" height="150" fill="none" xmlns="http://www.w3.org/2000/svg"><circle cx="59.004" cy="59" r="59" fill="#A44B4C"/><path d="M79.027 81.75c30.392 0 55.029-7.84 55.029-17.513 0-9.671-24.637-17.512-55.03-17.512-30.39 0-55.028 7.84-55.028 17.512S48.635 81.75 79.027 81.75zM75.09 107.94c-53.187-1.955-51.084-43.707-51.084-43.707" stroke="#E9D3B0" stroke-width="2" stroke-linecap="round" stroke-linejoin="round"/><path d="M82.952 107.94a72.394 72.394 0 0023.567-4.418 47.38 47.38 0 007.076-3.362v-.019c21.62-12.589 20.441-35.908 20.441-35.908M82.952 102.154c0-2.16-1.76-3.91-3.93-3.91-2.172 0-3.932 1.75-3.932 3.91v25.411c0 2.159 1.76 3.91 3.931 3.91 2.171 0 3.931-1.751 3.931-3.91v-25.411zM42.109 98.694L31.71 118.515a3.995 3.995 0 00-.452 1.798 3.956 3.956 0 002.123 3.48 3.932 3.932 0 002.99.261 3.91 3.91 0 002.297-1.923l10.32-19.645" stroke="#E9D3B0" stroke-width="2" stroke-linecap="round" stroke-linejoin="round"/><path d="M115.875 98.694l10.456 19.899a3.91 3.91 0 01-1.67 5.278 4.053 4.053 0 01-1.809.449 3.95 3.95 0 01-3.479-2.111l-10.358-19.723M35.78 66.969l9.827-9.773M43.642 70.879L59.366 55.24M53.47 72.833l19.655-19.547M63.297 74.788l21.621-21.502M75.09 74.788l19.656-19.547M86.883 74.788l17.69-17.592M100.642 72.834l15.724-15.638M114.401 70.878l7.862-7.818M71.346 18.1l-4.719 5.612a5.8 5.8 0 000 7.474l.004.005a5.8 5.8 0 010 7.474l-.788.937M83.14 18.1l-4.72 5.612a5.8 5.8 0 000 7.474l.004.005a5.8 5.8 0 010 7.474l-.788.937M94.933 18.1l-4.72 5.612a5.8 5.8 0 000 7.474l.004.005a5.8 5.8 0 010 7.474l-.788.937" stroke="#E9D3B0" stroke-width="2" stroke-linecap="round" stroke-linejoin="round"/></svg>