<svg width="159" height="150" fill="none" xmlns="http://www.w3.org/2000/svg"><circle cx="64.004" cy="59" r="59" fill="#A44B4C"/><path d="M116.037 104.977c3.374 3.053 3.374 8 0 11.048-3.374 3.053-8.84 3.053-12.208 0-3.374-3.053-3.374-8 0-11.048 3.374-3.053 8.84-3.053 12.208 0M56.088 104.975c3.373 3.053 3.373 8 0 11.048-3.374 3.053-8.84 3.053-12.208 0-3.368-3.053-3.374-8 0-11.048 3.373-3.048 8.834-3.053 12.208 0M68.6 34.466h21.8c3.009 0 5.45 2.21 5.45 4.932V88.72H25" stroke="#E9D3B0" stroke-width="2" stroke-linecap="round" stroke-linejoin="round"/><path d="M41.35 110.502h-10.9c-3.008 0-5.45-2.21-5.45-4.932V78.857M95.85 49.262h23.561c2.229 0 4.234 1.228 5.057 3.102l8.753 19.798a9.084 9.084 0 01.779 3.66v29.336c0 2.723-2.441 4.932-5.45 4.932h-9.979M101.3 110.516H58.627" stroke="#E9D3B0" stroke-width="2" stroke-linecap="round" stroke-linejoin="round"/><path d="M134 83.786h-21.8V64.057h17.44M25 34.465h27.25M25 49.26h16.35M30.45 64.056H25M126.385 69.398h-8.816" stroke="#E9D3B0" stroke-width="2" stroke-linecap="round" stroke-linejoin="round"/></svg>