<svg width="159" height="150" fill="none" xmlns="http://www.w3.org/2000/svg"><circle cx="65.004" cy="59" r="59" fill="#A44B4C"/><path clip-rule="evenodd" d="M79.25 106.773v0c-8.699 0-15.75-7.031-15.75-15.707v-2.204c0-2.89 2.353-5.236 5.25-5.236h21c2.898 0 5.25 2.346 5.25 5.236v2.204c0 8.676-7.05 15.707-15.75 15.707z" stroke="#E9D3B0" stroke-width="2" stroke-linecap="round" stroke-linejoin="round"/><path d="M92.49 49.179v-13.09C92.49 28.86 86.614 23 79.363 23v0c-7.25 0-13.125 5.859-13.125 13.09v13.089M116.25 75.358v41.887c0 5.785-4.699 10.471-10.5 10.471h-52.5c-5.801 0-10.5-4.686-10.5-10.471V75.358" stroke="#E9D3B0" stroke-width="2" stroke-linecap="round" stroke-linejoin="round"/><path d="M132 75.358h-13.34c-7.508 0-13.97-5.283-15.446-12.629l-1.874-9.34a5.237 5.237 0 00-5.145-4.21h-33.39a5.247 5.247 0 00-5.15 4.21l-1.874 9.34c-1.47 7.346-7.933 12.629-15.44 12.629H27M72.5 93.78h14.837M75.5 99.791h7" stroke="#E9D3B0" stroke-width="2" stroke-linecap="round" stroke-linejoin="round"/></svg>