<svg width="159" height="150" viewBox="0 0 159 150" fill="none" xmlns="http://www.w3.org/2000/svg">
<circle cx="65.0044" cy="59" r="59" fill="#A44B4C"/>
<path fill-rule="evenodd" clip-rule="evenodd" d="M24.5827 111.962C20.3813 111.268 15.4999 110.037 12.1578 105.632C8.81567 101.227 7.01956 93.6482 9.53357 85.023C12.05 76.394 18.8807 66.7237 28.6726 58.2771C38.4644 49.8305 51.2185 42.6136 67.8663 37.5979C84.5148 32.5852 105.054 29.7774 118.328 29.1126C131.601 28.4478 137.611 29.9281 141.459 33.5234C145.307 37.1187 147 42.8273 145.003 47.7479C143.006 52.6686 137.316 56.802 129.11 59.6456C120.901 62.4931 110.172 64.0516 101.958 67.4456C93.7436 70.8396 88.0464 76.0653 83.9518 81.6453C79.8541 87.2261 77.3555 93.159 72.8035 97.7214C68.2491 102.288 61.6391 105.487 55.1345 107.802C48.6269 110.118 42.2242 111.547 37.2609 112.185C32.3001 112.818 28.7811 112.657 24.5827 111.962Z" stroke="#E9D3B0" stroke-width="2" stroke-linecap="round" stroke-linejoin="round"/>
<path d="M150.395 54.1792C151.086 56.6538 151.028 59.3039 150.016 61.7534C148.034 66.5588 142.386 70.5956 134.239 73.3727C126.09 76.1536 115.439 77.6757 107.285 80.9903C99.1341 84.3041 93.4785 89.4076 89.4108 94.8578C85.3431 100.308 82.8627 106.102 78.344 110.558C73.8229 115.017 67.2611 118.142 60.804 120.403C54.344 122.665 47.988 124.06 43.061 124.683C38.1363 125.302 34.6461 125.143 30.4753 124.465C26.7527 123.859 22.4924 122.838 19.261 119.568" stroke="#E9D3B0" stroke-width="2" stroke-linecap="round" stroke-linejoin="round"/>
<path d="M11.1323 97.1707C11.821 100.146 12.5137 103.123 13.3599 105.932C14.2061 108.74 15.2123 111.378 16.4708 113.363C17.7285 115.345 19.2417 116.673 20.7516 118.003" stroke="#E9D3B0" stroke-width="2" stroke-linecap="round" stroke-linejoin="round"/>
<path d="M141.561 38.0815C143.118 40.3791 144.679 42.6758 145.799 45.3319C146.922 47.9871 147.605 51.0018 148.287 54.0164" stroke="#E9D3B0" stroke-width="2" stroke-linecap="round" stroke-linejoin="round"/>
<path fill-rule="evenodd" clip-rule="evenodd" d="M39.4466 72.2943C36.4912 74.3551 33.8288 76.6185 32.08 78.8288C30.333 81.0322 29.5014 83.1757 29.5238 85.3338C29.5485 87.4881 30.4296 89.653 32.2727 91.1226C34.1139 92.5991 36.9165 93.3772 40.5632 92.5765C44.2093 91.7728 48.7018 89.3865 52.2616 86.4872C55.8231 83.581 58.4566 80.1541 59.9199 77.0879C61.3809 74.0255 61.6679 71.3217 60.9671 69.496C60.2603 67.672 58.5619 66.724 56.3886 66.3741C54.2122 66.0252 51.5529 66.267 48.6009 67.3182C45.6459 68.3701 42.4013 70.2305 39.4466 72.2943Z" stroke="#E9D3B0" stroke-width="2" stroke-linecap="round" stroke-linejoin="round"/>
<path fill-rule="evenodd" clip-rule="evenodd" d="M38.3043 77.4474C36.596 78.6408 35.0564 79.9501 34.0457 81.224C33.0379 82.4971 32.556 83.7356 32.5703 84.9828C32.584 86.2271 33.094 87.4801 34.1585 88.3298C35.2199 89.1805 36.84 89.6331 38.9482 89.1678C41.0541 88.7064 43.6513 87.3263 45.7108 85.6489C47.7667 83.9693 49.2881 81.9916 50.1331 80.218C50.9787 78.4474 51.1454 76.8848 50.7386 75.8329C50.3311 74.778 49.3524 74.23 48.0932 74.0281C46.8339 73.8262 45.2995 73.9659 43.5937 74.5745C41.8873 75.1801 40.0096 76.2547 38.3043 77.4474Z" stroke="#E9D3B0" stroke-width="2" stroke-linecap="round" stroke-linejoin="round"/>
<path fill-rule="evenodd" clip-rule="evenodd" d="M34.7474 60.1653C31.3898 62.5155 27.5102 65.8903 24.3567 69.7418C21.2002 73.5941 18.7704 77.9263 17.1125 81.8112C15.4547 85.6961 14.5731 89.1391 15.4935 92.4753C16.414 95.8114 19.1348 99.0477 23.5647 100.651C27.9946 102.255 34.1305 102.227 40.0286 101.911C45.9243 101.599 51.5846 100.995 56.6134 99.5016C61.6397 98.0123 66.0367 95.6296 68.5665 92.3932C71.0938 89.1607 71.7507 85.0754 71.5678 80.1554C71.3856 75.2385 70.3613 69.4909 69.2819 65.1785C68.2024 60.8661 67.0642 57.9867 64.7835 56.0056C62.4997 54.0253 59.0667 52.942 55.3776 52.9507C51.6855 52.9603 47.7312 54.0636 44.3363 55.278C40.9414 56.4925 38.1051 57.8151 34.7474 60.1653Z" stroke="#E9D3B0" stroke-width="2" stroke-linecap="round" stroke-linejoin="round"/>
<path fill-rule="evenodd" clip-rule="evenodd" d="M63.2805 43.4053C64.9536 42.2154 69.091 41.0784 74.9856 39.7612C80.8796 38.441 88.5331 36.9369 94.8788 36.098C101.224 35.2561 106.267 35.0748 108.516 36.3912C110.766 37.7077 110.223 40.5247 107.857 44.0147C105.489 47.5017 101.292 51.6633 96.2013 53.8797C91.1109 56.0961 85.1241 56.3653 79.4703 54.9109C73.819 53.4527 68.5032 50.2673 65.4498 48.0546C62.3965 45.8419 61.6045 44.5961 63.2805 43.4053Z" stroke="#E9D3B0" stroke-width="2" stroke-linecap="round" stroke-linejoin="round"/>
<path fill-rule="evenodd" clip-rule="evenodd" d="M76.9733 62.6163C75.7094 63.6406 74.8184 65.3615 74.4687 67.7612C74.1189 70.1609 74.3123 73.2325 74.5605 76.0228C74.8057 78.814 75.1089 81.3231 76.253 81.7622C77.397 82.2013 79.3826 80.5735 80.9479 78.862C82.5163 77.1496 83.6651 75.3567 85.356 73.8111C87.0469 72.2655 89.2812 70.9734 90.7219 69.5205C92.1657 68.0667 92.8164 66.455 92.5477 65.1683C92.2783 63.8786 91.09 62.9169 89.0966 62.2676C87.1032 61.6184 84.3045 61.2816 82.0856 61.2789C79.8691 61.2724 78.2372 61.5921 76.9733 62.6163Z" stroke="#E9D3B0" stroke-width="2" stroke-linecap="round" stroke-linejoin="round"/>
<path fill-rule="evenodd" clip-rule="evenodd" d="M116.008 36.4573C117.58 35.6648 120.19 35.3776 123.302 35.5749C126.413 35.7721 130.026 36.4479 132.908 37.4624C135.79 38.477 137.94 39.8312 138.83 41.7557C139.723 43.6793 139.357 46.1763 136.869 49.1784C134.381 52.1775 129.777 55.6832 125.336 57.8556C120.895 60.0249 116.621 60.8602 114.258 60.6341C111.899 60.4041 111.45 59.1096 111.49 56.9706C111.533 54.8277 112.064 51.8404 112.461 48.8454C112.858 45.8503 113.119 42.8515 113.515 40.7002C113.911 38.5489 114.44 37.2489 116.008 36.4573Z" stroke="#E9D3B0" stroke-width="2" stroke-linecap="round" stroke-linejoin="round"/>
</svg>
