<svg width="159" height="150" viewBox="0 0 159 150" fill="none" xmlns="http://www.w3.org/2000/svg">
<circle cx="59.0044" cy="59" r="59" fill="#A44B4C"/>
<path d="M79.0269 81.7498C109.419 81.7498 134.056 73.9092 134.056 64.2374C134.056 54.5656 109.419 46.7251 79.0269 46.7251C48.6353 46.7251 23.998 54.5656 23.998 64.2374C23.998 73.9092 48.6353 81.7498 79.0269 81.7498Z" stroke="#E9D3B0" stroke-width="2" stroke-linecap="round" stroke-linejoin="round"/>
<path d="M75.0902 107.94C21.9033 105.985 24.0064 64.2329 24.0064 64.2329" stroke="#E9D3B0" stroke-width="2" stroke-linecap="round" stroke-linejoin="round"/>
<path d="M82.9521 107.94C91.0007 107.787 98.9666 106.294 106.519 103.522C108.967 102.598 111.334 101.474 113.595 100.16V100.141C135.215 87.5525 134.036 64.2329 134.036 64.2329" stroke="#E9D3B0" stroke-width="2" stroke-linecap="round" stroke-linejoin="round"/>
<path d="M82.9524 102.154C82.9524 99.9949 81.1924 98.2446 79.0214 98.2446C76.8503 98.2446 75.0903 99.9949 75.0903 102.154V127.565C75.0903 129.724 76.8503 131.475 79.0214 131.475C81.1924 131.475 82.9524 129.724 82.9524 127.565V102.154Z" stroke="#E9D3B0" stroke-width="2" stroke-linecap="round" stroke-linejoin="round"/>
<path d="M42.1089 98.6943L31.7113 118.515C31.4216 119.071 31.2668 119.687 31.2593 120.313C31.2671 121.774 32.0831 123.111 33.382 123.793C34.3043 124.272 35.3805 124.366 36.3726 124.054C37.3648 123.742 38.1912 123.05 38.6693 122.131L48.9882 102.486" stroke="#E9D3B0" stroke-width="2" stroke-linecap="round" stroke-linejoin="round"/>
<path d="M115.875 98.6943L126.331 118.593C127.331 120.51 126.584 122.87 124.661 123.871C124.101 124.159 123.482 124.313 122.852 124.32C121.389 124.312 120.05 123.5 119.373 122.209L109.015 102.486" stroke="#E9D3B0" stroke-width="2" stroke-linecap="round" stroke-linejoin="round"/>
<path d="M35.7798 66.9686L45.6074 57.196" stroke="#E9D3B0" stroke-width="2" stroke-linecap="round" stroke-linejoin="round"/>
<path d="M43.6421 70.8788L59.3662 55.2412" stroke="#E9D3B0" stroke-width="2" stroke-linecap="round" stroke-linejoin="round"/>
<path d="M53.4697 72.8334L73.1249 53.2864" stroke="#E9D3B0" stroke-width="2" stroke-linecap="round" stroke-linejoin="round"/>
<path d="M63.2974 74.7881L84.9181 53.2864" stroke="#E9D3B0" stroke-width="2" stroke-linecap="round" stroke-linejoin="round"/>
<path d="M75.0903 74.7882L94.7455 55.2412" stroke="#E9D3B0" stroke-width="2" stroke-linecap="round" stroke-linejoin="round"/>
<path d="M86.8833 74.7884L104.573 57.196" stroke="#E9D3B0" stroke-width="2" stroke-linecap="round" stroke-linejoin="round"/>
<path d="M100.642 72.8336L116.366 57.196" stroke="#E9D3B0" stroke-width="2" stroke-linecap="round" stroke-linejoin="round"/>
<path d="M114.401 70.8781L122.263 63.0601" stroke="#E9D3B0" stroke-width="2" stroke-linecap="round" stroke-linejoin="round"/>
<path d="M71.3462 18.1003L66.627 23.7118C64.8079 25.8748 64.8079 29.023 66.627 31.186L66.6309 31.1907C68.45 33.3537 68.45 36.5018 66.6309 38.6648L65.8427 39.6021" stroke="#E9D3B0" stroke-width="2" stroke-linecap="round" stroke-linejoin="round"/>
<path d="M83.1392 18.1003L78.42 23.7118C76.6009 25.8748 76.6009 29.023 78.42 31.186L78.4239 31.1907C80.2429 33.3537 80.2429 36.5018 78.4239 38.6648L77.6357 39.6021" stroke="#E9D3B0" stroke-width="2" stroke-linecap="round" stroke-linejoin="round"/>
<path d="M94.9326 18.1003L90.2134 23.7118C88.3944 25.8748 88.3944 29.023 90.2134 31.186L90.2173 31.1907C92.0364 33.3537 92.0364 36.5018 90.2173 38.6648L89.4292 39.6021" stroke="#E9D3B0" stroke-width="2" stroke-linecap="round" stroke-linejoin="round"/>
</svg>
