<svg width="159" height="150" viewBox="0 0 159 150" fill="none" xmlns="http://www.w3.org/2000/svg">
<circle cx="64.0044" cy="59" r="59" fill="#A44B4C"/>
<path d="M116.037 104.977C119.411 108.03 119.411 112.977 116.037 116.025C112.663 119.078 107.197 119.078 103.829 116.025C100.455 112.972 100.455 108.025 103.829 104.977C107.203 101.924 112.669 101.924 116.037 104.977" stroke="#E9D3B0" stroke-width="2" stroke-linecap="round" stroke-linejoin="round"/>
<path d="M56.0878 104.975C59.4614 108.028 59.4614 112.975 56.0878 116.023C52.7142 119.076 47.2478 119.076 43.8797 116.023C40.5116 112.97 40.5061 108.023 43.8797 104.975C47.2533 101.927 52.7142 101.922 56.0878 104.975" stroke="#E9D3B0" stroke-width="2" stroke-linecap="round" stroke-linejoin="round"/>
<path d="M68.6001 34.4661H90.4001C93.4086 34.4661 95.8502 36.6757 95.8502 39.3982V88.7197H25" stroke="#E9D3B0" stroke-width="2" stroke-linecap="round" stroke-linejoin="round"/>
<path d="M41.35 110.502H30.45C27.4416 110.502 25 108.292 25 105.57V78.8574" stroke="#E9D3B0" stroke-width="2" stroke-linecap="round" stroke-linejoin="round"/>
<path d="M95.8501 49.2617H119.411C121.64 49.2617 123.645 50.4898 124.468 52.3641L133.221 72.1618C133.733 73.3258 134 74.5687 134 75.8215V105.158C134 107.881 131.559 110.09 128.55 110.09H118.571" stroke="#E9D3B0" stroke-width="2" stroke-linecap="round" stroke-linejoin="round"/>
<path d="M101.3 110.516H58.6265" stroke="#E9D3B0" stroke-width="2" stroke-linecap="round" stroke-linejoin="round"/>
<path d="M134 83.7861H112.2V64.0574H129.64" stroke="#E9D3B0" stroke-width="2" stroke-linecap="round" stroke-linejoin="round"/>
<path d="M25 34.4648H52.2501" stroke="#E9D3B0" stroke-width="2" stroke-linecap="round" stroke-linejoin="round"/>
<path d="M25 49.2606H41.35" stroke="#E9D3B0" stroke-width="2" stroke-linecap="round" stroke-linejoin="round"/>
<path d="M30.4501 64.0565H25" stroke="#E9D3B0" stroke-width="2" stroke-linecap="round" stroke-linejoin="round"/>
<path d="M126.385 69.3981H117.569" stroke="#E9D3B0" stroke-width="2" stroke-linecap="round" stroke-linejoin="round"/>
</svg>
