<svg width="159" height="150" viewBox="0 0 159 150" fill="none" xmlns="http://www.w3.org/2000/svg">
<circle cx="65.0044" cy="59" r="59" fill="#A44B4C"/>
<path fill-rule="evenodd" clip-rule="evenodd" d="M79.2505 106.773V106.773C70.5512 106.773 63.5005 99.7418 63.5005 91.0662V88.862C63.5005 85.9718 65.8525 83.6262 68.7505 83.6262H89.7505C92.6485 83.6262 95.0005 85.9718 95.0005 88.862V91.0662C95.0005 99.7418 87.9497 106.773 79.2505 106.773Z" stroke="#E9D3B0" stroke-width="2" stroke-linecap="round" stroke-linejoin="round"/>
<path d="M92.4893 49.179V36.0895C92.4893 28.8589 86.6145 23 79.3643 23V23C72.114 23 66.2393 28.8589 66.2393 36.0895V49.179" stroke="#E9D3B0" stroke-width="2" stroke-linecap="round" stroke-linejoin="round"/>
<path d="M116.25 75.3582V117.245C116.25 123.03 111.551 127.716 105.75 127.716H53.25C47.4487 127.716 42.75 123.03 42.75 117.245V75.3582" stroke="#E9D3B0" stroke-width="2" stroke-linecap="round" stroke-linejoin="round"/>
<path d="M132 75.358H118.66C111.152 75.358 104.69 70.0751 103.214 62.7292L101.34 53.3886C100.852 50.9382 98.6993 49.179 96.195 49.179H79.5H62.805C60.3008 49.179 58.1483 50.9382 57.6548 53.3886L55.7805 62.7292C54.3105 70.0751 47.8478 75.358 40.3403 75.358H27" stroke="#E9D3B0" stroke-width="2" stroke-linecap="round" stroke-linejoin="round"/>
<path d="M72.5005 93.7793H87.337" stroke="#E9D3B0" stroke-width="2" stroke-linecap="round" stroke-linejoin="round"/>
<path d="M75.5005 99.7913H82.5005" stroke="#E9D3B0" stroke-width="2" stroke-linecap="round" stroke-linejoin="round"/>
</svg>
